# xmcd CD database file
#
# Track frame offsets:
#	150
#	28575
#	45836
#	70165
#	90539
#	121676
#	142051
#	164675
#	186306
#	207791
#	233793
#	257521
#	281245
#	307509
#
# Disc length: 4433 seconds
#
# Revision: 0
# Processed by: cddbd v1.5.2PL0 Copyright (c) Steve Scherf et al.
# Submitted via: CDex 1.70beta2
#
DISCID=ba114f0e
DTITLE=Carl Cox - Global - CD2
DYEAR=2006
DGENRE=Dance and Electronic
TTITLE0=Terry Numan - Stimulated (Original Mix) 
TTITLE1=Dani Koenig - Tribal Acid
TTITLE2=Kult Of Krameria - One Hundred Percent 
TTITLE3=Nick and Danny Chatelian - Is Killing Me 
TTITLE4=Cytric - I Need You (Rob Mirage Remix) 
TTITLE5=Trevor Rockcliffe - Free 
TTITLE6=Digital Killas - Bad Brother 
TTITLE7=Umek - Scathead 
TTITLE8=Tom Hades - Rock The Box 
TTITLE9=Lee Coombs and Paranoid Jack - Time Is Now (House Mix) 
TTITLE10=Ali Wilson and Future Kuts - Rhythm Search 
TTITLE11=Carl Cox - Spoon 
TTITLE12=Magik Johnson - Jump 
TTITLE13=String Theory - Different Styles 
EXTD=YEAR: 2006
EXTT0=
EXTT1=
EXTT2=
EXTT3=
EXTT4=
EXTT5=
EXTT6=
EXTT7=
EXTT8=
EXTT9=
EXTT10=
EXTT11=
EXTT12=
EXTT13=
PLAYORDER=
